<svg xmlns="http://www.w3.org/2000/svg" viewBox="0 0 100 100">
  <defs>
    <linearGradient id="bodyGrad" x1="0%" y1="0%" x2="100%" y2="100%">
      <stop offset="0%" style="stop-color:#3b82f6"/>
      <stop offset="100%" style="stop-color:#1d4ed8"/>
    </linearGradient>
    <linearGradient id="eyeGlow" x1="0%" y1="0%" x2="100%" y2="100%">
      <stop offset="0%" style="stop-color:#22c55e"/>
      <stop offset="100%" style="stop-color:#16a34a"/>
    </linearGradient>
  </defs>
  
  <!-- Robot Body -->
  <rect x="20" y="30" width="60" height="50" rx="10" fill="url(#bodyGrad)"/>
  
  <!-- Robot Head -->
  <rect x="25" y="10" width="50" height="25" rx="8" fill="url(#bodyGrad)"/>
  
  <!-- Antenna -->
  <line x1="50" y1="10" x2="50" y2="2" stroke="#f97316" stroke-width="3" stroke-linecap="round"/>
  <circle cx="50" cy="2" r="4" fill="#f97316"/>
  
  <!-- Eyes -->
  <circle cx="38" cy="22" r="6" fill="url(#eyeGlow)"/>
  <circle cx="62" cy="22" r="6" fill="url(#eyeGlow)"/>
  <circle cx="38" cy="22" r="2" fill="white"/>
  <circle cx="62" cy="22" r="2" fill="white"/>
  
  <!-- Smile -->
  <path d="M 40 28 Q 50 34 60 28" stroke="#fff" stroke-width="2" fill="none" stroke-linecap="round"/>
  
  <!-- Wheels -->
  <circle cx="30" cy="85" r="10" fill="#374151"/>
  <circle cx="70" cy="85" r="10" fill="#374151"/>
  <circle cx="30" cy="85" r="5" fill="#6b7280"/>
  <circle cx="70" cy="85" r="5" fill="#6b7280"/>
  
  <!-- Arms -->
  <rect x="10" y="40" width="10" height="25" rx="5" fill="url(#bodyGrad)"/>
  <rect x="80" y="40" width="10" height="25" rx="5" fill="url(#bodyGrad)"/>
  
  <!-- Chest Panel -->
  <rect x="35" y="42" width="30" height="20" rx="4" fill="#1e3a5f"/>
  <rect x="38" y="45" width="6" height="6" rx="1" fill="#22c55e"/>
  <rect x="47" y="45" width="6" height="6" rx="1" fill="#eab308"/>
  <rect x="56" y="45" width="6" height="6" rx="1" fill="#ef4444"/>
  <rect x="38" y="54" width="24" height="4" rx="2" fill="#3b82f6"/>
</svg>
